<svg xmlns="http://www.w3.org/2000/svg" width="640" height="360" viewBox="0 0 640 360">
  <defs>
    <linearGradient id="g" x1="0" y1="0" x2="1" y2="1">
      <stop offset="0" stop-color="#e8f0e0"/>
      <stop offset="1" stop-color="#f6d8c4"/>
    </linearGradient>
  </defs>
  <rect width="640" height="360" rx="24" fill="url(#g)"/>
  <path d="M0 280 C120 220, 240 340, 360 280 S560 220, 640 280 V360 H0 Z" fill="#113a4b" fill-opacity="0.12"/>
  <path d="M0 240 C140 190, 260 310, 380 240 S560 170, 640 230 V360 H0 Z" fill="#c15a2d" fill-opacity="0.10"/>
  <circle cx="96" cy="100" r="42" fill="#113a4b" fill-opacity="0.16"/>
  <rect x="160" y="78" width="420" height="18" rx="9" fill="#113a4b" fill-opacity="0.18"/>
  <rect x="160" y="108" width="330" height="14" rx="7" fill="#113a4b" fill-opacity="0.12"/>
  <rect x="64" y="176" width="512" height="14" rx="7" fill="#113a4b" fill-opacity="0.10"/>
  <rect x="64" y="202" width="452" height="14" rx="7" fill="#113a4b" fill-opacity="0.08"/>
</svg>

